<svg xmlns="http://www.w3.org/2000/svg" viewBox="0 0 1076 363.12"><defs><style>.cls-1{fill:#02c39a;}.cls-2{fill:#07a882;}.cls-3{fill:#515151;}</style></defs><title>dotted-background</title><g id="Layer_2" data-name="Layer 2"><g id="Layer_1-2" data-name="Layer 1"><rect class="cls-1" width="1076" height="363.12"/><circle class="cls-2" cx="47.56" cy="40.89" r="4.26"/><circle class="cls-2" cx="68.07" cy="40.89" r="4.26"/><circle class="cls-2" cx="88.58" cy="40.89" r="4.26"/><circle class="cls-2" cx="109.09" cy="40.89" r="4.26"/><circle class="cls-2" cx="47.56" cy="65.07" r="4.26"/><circle class="cls-2" cx="68.07" cy="65.07" r="4.26"/><circle class="cls-2" cx="88.58" cy="65.07" r="4.26"/><circle class="cls-2" cx="109.09" cy="65.07" r="4.26"/><circle class="cls-2" cx="47.56" cy="89.25" r="4.26"/><circle class="cls-2" cx="68.07" cy="89.25" r="4.26"/><circle class="cls-2" cx="88.58" cy="89.25" r="4.26"/><circle class="cls-2" cx="109.09" cy="89.25" r="4.26"/><circle class="cls-3" cx="149.98" cy="40.89" r="4.26"/><circle class="cls-3" cx="170.49" cy="40.89" r="4.26"/><circle class="cls-3" cx="191" cy="40.89" r="4.26"/><circle class="cls-3" cx="211.51" cy="40.89" r="4.26"/><circle class="cls-3" cx="149.98" cy="65.07" r="4.26"/><circle class="cls-3" cx="170.49" cy="65.07" r="4.26"/><circle class="cls-3" cx="191" cy="65.07" r="4.26"/><circle class="cls-3" cx="211.51" cy="65.07" r="4.26"/><circle class="cls-3" cx="149.98" cy="89.25" r="4.26"/><circle class="cls-3" cx="170.49" cy="89.25" r="4.26"/><circle class="cls-3" cx="191" cy="89.25" r="4.26"/><circle class="cls-3" cx="211.51" cy="89.25" r="4.26"/><circle class="cls-2" cx="149.98" cy="130.77" r="4.26"/><circle class="cls-2" cx="170.49" cy="130.77" r="4.26"/><circle class="cls-2" cx="191" cy="130.77" r="4.26"/><circle class="cls-2" cx="211.51" cy="130.77" r="4.26"/><circle class="cls-2" cx="149.98" cy="154.95" r="4.26"/><circle class="cls-2" cx="170.49" cy="154.95" r="4.26"/><circle class="cls-2" cx="191" cy="154.95" r="4.26"/><circle class="cls-2" cx="211.51" cy="154.95" r="4.26"/><circle class="cls-2" cx="149.98" cy="179.14" r="4.26"/><circle class="cls-2" cx="170.49" cy="179.14" r="4.26"/><circle class="cls-2" cx="191" cy="179.14" r="4.26"/><circle class="cls-2" cx="211.51" cy="179.14" r="4.26"/><circle class="cls-3" cx="47.56" cy="130.77" r="4.26"/><circle class="cls-3" cx="68.07" cy="130.77" r="4.26"/><circle class="cls-3" cx="88.58" cy="130.77" r="4.26"/><circle class="cls-3" cx="109.09" cy="130.77" r="4.26"/><circle class="cls-3" cx="47.56" cy="154.95" r="4.26"/><circle class="cls-3" cx="68.07" cy="154.95" r="4.26"/><circle class="cls-3" cx="88.58" cy="154.95" r="4.26"/><circle class="cls-3" cx="109.09" cy="154.95" r="4.26"/><circle class="cls-3" cx="47.56" cy="179.14" r="4.26"/><circle class="cls-3" cx="68.07" cy="179.14" r="4.26"/><circle class="cls-3" cx="88.58" cy="179.14" r="4.26"/><circle class="cls-3" cx="109.09" cy="179.14" r="4.26"/><circle class="cls-2" cx="859.4" cy="186.89" r="4.26"/><circle class="cls-2" cx="879.91" cy="186.89" r="4.26"/><circle class="cls-2" cx="900.42" cy="186.89" r="4.26"/><circle class="cls-2" cx="920.93" cy="186.89" r="4.26"/><circle class="cls-2" cx="859.4" cy="211.07" r="4.26"/><circle class="cls-2" cx="879.91" cy="211.07" r="4.26"/><circle class="cls-2" cx="900.42" cy="211.07" r="4.26"/><circle class="cls-2" cx="920.93" cy="211.07" r="4.26"/><circle class="cls-2" cx="859.4" cy="235.26" r="4.26"/><circle class="cls-2" cx="879.91" cy="235.26" r="4.26"/><circle class="cls-2" cx="900.42" cy="235.26" r="4.26"/><circle class="cls-2" cx="920.93" cy="235.26" r="4.26"/><circle class="cls-3" cx="961.82" cy="186.89" r="4.26"/><circle class="cls-3" cx="982.33" cy="186.89" r="4.26"/><circle class="cls-3" cx="1002.84" cy="186.89" r="4.26"/><circle class="cls-3" cx="1023.35" cy="186.89" r="4.26"/><circle class="cls-3" cx="961.82" cy="211.07" r="4.26"/><circle class="cls-3" cx="982.33" cy="211.07" r="4.26"/><circle class="cls-3" cx="1002.84" cy="211.07" r="4.26"/><circle class="cls-3" cx="1023.35" cy="211.07" r="4.26"/><circle class="cls-3" cx="961.82" cy="235.26" r="4.26"/><circle class="cls-3" cx="982.33" cy="235.26" r="4.26"/><circle class="cls-3" cx="1002.84" cy="235.26" r="4.26"/><circle class="cls-3" cx="1023.35" cy="235.26" r="4.26"/><circle class="cls-2" cx="961.82" cy="276.77" r="4.26"/><circle class="cls-2" cx="982.33" cy="276.77" r="4.26"/><circle class="cls-2" cx="1002.84" cy="276.77" r="4.26"/><circle class="cls-2" cx="1023.35" cy="276.77" r="4.26"/><circle class="cls-2" cx="961.82" cy="300.96" r="4.26"/><circle class="cls-2" cx="982.33" cy="300.96" r="4.26"/><circle class="cls-2" cx="1002.84" cy="300.96" r="4.26"/><circle class="cls-2" cx="1023.35" cy="300.96" r="4.26"/><circle class="cls-2" cx="961.82" cy="325.14" r="4.26"/><circle class="cls-2" cx="982.33" cy="325.14" r="4.26"/><circle class="cls-2" cx="1002.84" cy="325.14" r="4.26"/><circle class="cls-2" cx="1023.35" cy="325.14" r="4.26"/><circle class="cls-3" cx="859.4" cy="276.77" r="4.26"/><circle class="cls-3" cx="879.91" cy="276.77" r="4.26"/><circle class="cls-3" cx="900.42" cy="276.77" r="4.26"/><circle class="cls-3" cx="920.93" cy="276.77" r="4.26"/><circle class="cls-3" cx="859.4" cy="300.96" r="4.26"/><circle class="cls-3" cx="879.91" cy="300.96" r="4.26"/><circle class="cls-3" cx="900.42" cy="300.96" r="4.26"/><circle class="cls-3" cx="920.93" cy="300.96" r="4.26"/><circle class="cls-3" cx="859.4" cy="325.14" r="4.26"/><circle class="cls-3" cx="879.91" cy="325.14" r="4.26"/><circle class="cls-3" cx="900.42" cy="325.14" r="4.26"/><circle class="cls-3" cx="920.93" cy="325.14" r="4.26"/></g></g></svg>