<?xml version="1.0" encoding="UTF-8" standalone="no"?>
<!-- Created with Inkscape (http://www.inkscape.org/) -->

<svg
   width="264.21585mm"
   height="202.36005mm"
   viewBox="0 0 264.21585 202.36005"
   version="1.1"
   id="svg2366"
   inkscape:version="1.1.2 (08b2f3d93c, 2022-04-05)"
   sodipodi:docname="drawing.svg"
   xmlns:inkscape="http://www.inkscape.org/namespaces/inkscape"
   xmlns:sodipodi="http://sodipodi.sourceforge.net/DTD/sodipodi-0.dtd"
   xmlns="http://www.w3.org/2000/svg"
   xmlns:svg="http://www.w3.org/2000/svg">
  <sodipodi:namedview
     id="namedview2368"
     pagecolor="#505050"
     bordercolor="#eeeeee"
     borderopacity="1"
     inkscape:pageshadow="0"
     inkscape:pageopacity="0"
     inkscape:pagecheckerboard="0"
     inkscape:document-units="mm"
     showgrid="false"
     inkscape:zoom="0.47393378"
     inkscape:cx="501.12486"
     inkscape:cy="412.50488"
     inkscape:window-width="1366"
     inkscape:window-height="704"
     inkscape:window-x="0"
     inkscape:window-y="27"
     inkscape:window-maximized="1"
     inkscape:current-layer="layer1" />
  <defs
     id="defs2363" />
  <g
     inkscape:label="Layer 1"
     inkscape:groupmode="layer"
     id="layer1"
     transform="translate(27.15304,-39.504197)">
    <g
       id="g1896"
       style="fill:#666666"
       transform="matrix(0.03527778,0,0,-0.03527778,-499.78357,280.90974)">
      <g
         id="g403"
         transform="scale(1.1983)"
         style="fill:#666666">
        <path
           d="m 14205.1,4543.27 c -384.1,-504.8 -742,-1028.13 -1094.5,-1555.2 -90.4,-135.28 -181.3,-270.14 -270.8,-405.91 -40,-60.59 -79.9,-121.59 -116.2,-184.43 -30,-51.82 -58.6,-120.92 1.7,-164.07 45.9,-32.96 113.6,-47.4 167,-64 75.5,-23.45 151.8,-44.32 228.3,-64.43 392.5,-103.31 789.9,-188.35 1185.6,-278.73 133.8,-30.54 268.2,-60.16 400.5,-96.63 53.8,-14.86 135,-39.22 180,6.59 18.1,18.36 32.7,41.64 47.5,62.5 339.1,472.34 650.4,967.62 961.1,1458.82 122.7,194.11 254.5,387.97 357.5,593.67 23.8,47.57 47.2,98.48 -15,125.6 -72.5,31.63 -149.6,54.74 -224.5,79.94 -303.8,102.48 -609.7,199.12 -916.5,292 -155,46.9 -310.4,92.8 -466.7,135.36 -104.7,28.46 -210.7,58.58 -318.2,74.69 -23.1,3.5 -49.1,8.35 -72.1,2.09 -53.5,-14.61 -34.3,-98.81 19.4,-84.21 11.1,3.09 -9.5,0.59 1.6,0.5 4.3,0 8.7,0.09 13,-0.41 12.6,-1.25 32.7,-3.84 37.5,-4.68 44.3,-7.51 88.2,-17.94 131.8,-28.62 132.1,-32.13 263.1,-69.51 393.6,-107.48 311.8,-90.8 621.9,-187.94 930.6,-288.67 113.9,-37.13 227.6,-74.6 340.6,-114.24 30.9,-10.76 61.6,-22.03 92.1,-33.63 3.9,-1.42 7.5,-3.42 11.4,-4.59 -5.3,1.58 -1.8,5.01 -0.6,0.08 0.1,-0.33 -13.4,28.96 -16.8,33.38 -5.2,6.85 6.7,3.84 -0.2,1.34 -2.4,-1 -11.4,-27.62 -5.7,-15.19 -5.7,-12.27 -11.9,-24.29 -18.2,-36.22 -17.9,-34.05 -37.1,-67.43 -56.4,-100.73 -59.5,-102.39 -121.8,-203.28 -184.4,-303.84 -315.6,-506.72 -641.3,-1008.26 -978.6,-1500.79 -39.7,-58.08 -79.1,-116.75 -122,-172.58 -7.2,-9.26 4.9,-4.01 -5.5,-6.42 -0.5,-0.09 -0.8,-1.17 -1.3,-1.26 34.4,0.92 -21.5,9.18 -6.6,4.51 -27.9,8.84 -62.3,9.43 -91.8,17.44 -53.7,14.69 -107.7,27.87 -161.8,40.81 -365.3,87.46 -732.8,165.4 -1098.1,252.94 -166,39.8 -332,80.28 -495.7,128.51 -53.2,15.69 -118.4,28.04 -167.2,55.33 -30.6,17.03 -20.7,29.38 -3.7,59.5 16.1,28.71 34,56.75 51.6,84.62 42.6,67.68 87.2,134.03 131.6,200.54 336.9,504.63 672.8,1010.26 1030.3,1500.71 88.1,120.84 177.5,240.67 268,359.67 33.6,44.23 -39.7,89.71 -73.2,45.82 v 0"
           style="fill:#666666;fill-opacity:1;fill-rule:nonzero;stroke:none"
           id="path405" />
      </g>
      <g
         id="g407"
         transform="scale(1.06776)"
         style="fill:#666666">
        <path
           d="m 16224.9,4800.23 c 1.1,1.13 2.3,2.16 3.6,3.09 -3.4,-2.43 -6.8,-4.77 -10.3,-7.21 1.9,1.31 3.9,2.25 6,3.09 -3.8,-1.4 -7.6,-2.9 -11.6,-4.3 2.2,0.65 4.3,1.12 6.5,1.3 -4.1,-0.37 -8.2,-0.74 -12.3,-1.21 2.6,0.19 5.2,0 7.8,-0.38 -4.1,0.66 -8.3,1.31 -12.4,1.97 3.1,-0.56 6,-1.5 8.9,-2.72 -4,1.79 -7.9,3.56 -11.9,5.34 3.8,-1.68 7.1,-3.84 10.3,-6.36 -3.3,2.81 -6.7,5.52 -10,8.33 3.2,-2.62 5.9,-5.62 8.3,-8.9 -2.3,3.38 -4.7,6.84 -7.2,10.3 2.2,-3.09 3.9,-6.17 5.2,-9.64 -1.4,3.93 -2.8,7.77 -4.2,11.7 0.9,-2.71 1.5,-5.33 1.8,-8.14 -0.3,4.12 -0.7,8.24 -1.2,12.36 0.3,-2.9 0.2,-5.62 -0.2,-8.52 0.7,4.21 1.4,8.33 2,12.45 -0.6,-3.46 -1.7,-6.74 -3.1,-10.02 1.8,3.94 3.6,7.96 5.4,11.89 -1.7,-3.55 -3.8,-6.83 -6.2,-9.83 2.7,3.37 5.5,6.65 8.3,10.02 -2.9,-3.37 -6.1,-6.27 -9.5,-8.8 3.3,2.34 6.8,4.78 10.2,7.21 -4.4,-3.09 -9.1,-5.52 -14.2,-7.49 4,1.41 7.8,2.81 11.6,4.31 -5.5,-2.06 -11.3,-3.37 -17.2,-4.03 4.1,0.38 8.2,0.84 12.4,1.22 -6,-0.56 -11.9,-0.38 -17.8,0.56 4.1,-0.65 8.3,-1.31 12.4,-1.97 -5.3,0.94 -10.3,2.53 -15.2,4.68 3.9,-1.77 7.8,-3.55 11.8,-5.33 -4.2,1.97 -8.1,4.31 -11.7,7.21 3.3,-2.72 6.6,-5.53 10,-8.24 -2.7,2.34 -5.1,4.77 -7.2,7.68 2.4,-3.47 4.8,-6.84 7.3,-10.31 -1.8,2.53 -3.1,5.16 -4.2,7.97 1.5,-3.84 2.9,-7.78 4.3,-11.62 -0.7,2.16 -1.3,4.4 -1.5,6.65 0.3,-4.12 0.8,-8.24 1.2,-12.36 -0.3,2.62 -0.2,5.15 0.2,7.77 -0.7,-4.12 -1.4,-8.24 -2.1,-12.36 0.6,3 1.4,5.81 2.6,8.61 -1.7,-4.02 -3.5,-7.96 -5.3,-11.89 1.5,3.28 3.5,6.18 5.6,8.99 -2.7,-3.27 -5.5,-6.65 -8.2,-10.02 3.1,3.65 6.4,6.75 10.3,9.56 -3.5,-2.35 -6.9,-4.78 -10.3,-7.21 4.8,3.36 10,6.08 15.5,8.23 -3.8,-1.4 -7.8,-2.9 -11.6,-4.3 5.1,1.78 10.3,3.09 15.6,3.65 -4.1,-0.37 -8.2,-0.84 -12.3,-1.22 5.5,0.47 10.8,0.1 16.3,-0.65 -4.2,0.65 -8.4,1.31 -12.5,1.96 5,-0.93 9.9,-2.25 14.4,-4.21 -3.9,1.78 -7.8,3.56 -11.8,5.34 3.6,-1.69 6.9,-3.65 10.1,-6.09 -3.4,2.81 -6.8,5.52 -10.1,8.33 2.7,-2.24 4.9,-4.68 6.9,-7.39 -2.5,3.37 -4.8,6.83 -7.2,10.2 1.2,-1.87 2.3,-3.83 3.2,-5.99 -1.5,3.84 -3,7.68 -4.4,11.61 0.7,-1.96 1.2,-3.93 1.4,-5.99 -0.4,4.12 -0.8,8.24 -1.3,12.27 0.2,-2.53 0.1,-4.87 -0.1,-7.4 0.6,4.12 1.3,8.24 1.9,12.36 -0.5,-2.43 -1.2,-4.77 -2.1,-7.11 1.7,3.93 3.5,7.86 5.4,11.89 -1.2,-2.62 -2.7,-4.97 -4.5,-7.21 2.7,3.28 5.5,6.65 8.2,10.02 -1.3,-1.5 -2.7,-2.72 -4.3,-3.93 3.4,2.43 6.9,4.86 10.3,7.21 -1.3,-0.85 -2.6,-1.5 -4,-2.06 3.9,1.4 7.7,2.81 11.6,4.3 -1.5,-0.56 -3,-0.84 -4.5,-1.03 4.1,0.38 8.3,0.75 12.3,1.22 -1.2,-0.09 -2.3,-0.09 -3.6,0 -11.7,0.94 -25.6,-4.87 -34.1,-12.74 -8.9,-8.14 -15.9,-22 -15.8,-34.18 0.5,-27.35 20,-47.76 47,-49.92 17.5,-1.4 36.4,6 49.1,17.98 12.5,11.8 20.1,27.26 22.9,44.12 2.6,16.2 0.8,33.34 -7.6,47.76 -7.9,13.39 -19.2,25.94 -33.3,32.96 -25.1,12.55 -54.7,18.08 -82.1,9.27 -15.8,-4.96 -28.2,-11.42 -41.4,-21.53 -3,-2.25 -5.7,-4.78 -8.2,-7.59 -5.2,-5.81 -10.7,-11.89 -14.3,-18.92 -3.4,-6.37 -6.8,-13.2 -8.3,-20.32 -2.6,-12.17 -2.9,-21.54 -1.1,-33.72 2.1,-14.89 10.5,-30.53 20.9,-41.2 19.6,-20.05 48.2,-31.84 76.2,-31.57 27.4,0.29 52.4,9.18 73.9,26.23 2.7,2.15 5.1,4.59 7.5,7.21 5,5.81 10.3,11.71 13.8,18.64 6.8,13.11 12.2,27.53 11.5,42.61 -0.8,15.08 -4.3,30.15 -12.8,42.8 -8.8,12.92 -18.6,24.53 -32.7,32.22 -13.3,7.3 -28.2,12.64 -43.6,12.17 -18.8,-0.56 -37.1,-7.03 -50.9,-20.32 -9.1,-8.81 -15.3,-21.35 -15.7,-34.19 -0.3,-11.7 4.4,-25.94 12.7,-34.27 9.1,-8.99 21.2,-15.83 34.3,-15.65 12.5,0.19 25.1,3.85 34.3,12.74 v 0"
           style="fill:#666666;fill-opacity:1;fill-rule:nonzero;stroke:none"
           id="path409" />
      </g>
      <g
         id="g411"
         transform="scale(1.09366)"
         style="fill:#666666">
        <path
           d="m 16238.4,4593.46 c -0.4,1.37 -0.7,2.84 -0.8,4.3 0.4,-4.02 0.9,-8.04 1.2,-12.07 -0.2,2.02 -0.1,3.93 0.2,5.94 -0.6,-4.11 -1.3,-8.13 -1.9,-12.16 0.4,2.29 1.1,4.39 1.9,6.5 -1.7,-3.84 -3.5,-7.68 -5.2,-11.52 1.3,2.65 2.7,5.02 4.6,7.31 -2.8,-3.29 -5.4,-6.58 -8.2,-9.78 2.1,2.47 4.5,4.57 7.2,6.49 -3.4,-2.38 -6.7,-4.76 -10.1,-7.04 2.2,1.46 4.5,2.65 7,3.66 -3.8,-1.38 -7.5,-2.84 -11.4,-4.21 2.5,0.91 5,1.46 7.6,1.83 -4,-0.46 -8,-0.82 -12.1,-1.19 2.3,0.18 4.6,0.09 6.9,-0.28 -4,0.65 -8.1,1.29 -12.1,1.92 2.2,-0.36 4.3,-1 6.3,-1.92 -3.8,1.74 -7.6,3.48 -11.5,5.22 2.4,-1.1 4.5,-2.47 6.5,-4.21 -3.2,2.74 -6.5,5.4 -9.7,8.14 1.9,-1.74 3.7,-3.66 5.2,-5.76 -2.3,3.29 -4.6,6.67 -7,10.06 1.8,-2.66 3.4,-5.49 4.5,-8.41 -1.4,3.74 -2.8,7.49 -4.2,11.33 1.1,-3.02 1.9,-6.12 2.2,-9.32 -0.4,4.02 -0.8,8.04 -1.1,11.97 0.2,-3.2 0.1,-6.3 -0.3,-9.51 0.6,4.03 1.3,8.05 2,12.07 -0.6,-2.83 -1.4,-5.66 -2.6,-8.31 1.8,3.83 3.5,7.67 5.2,11.61 -1.1,-2.29 -2.3,-4.39 -3.9,-6.31 2.7,3.29 5.4,6.49 8.1,9.78 -2,-2.47 -4.2,-4.48 -6.8,-6.31 3.4,2.29 6.7,4.67 10.1,7.04 -2.9,-1.92 -5.9,-3.47 -9,-4.66 3.7,1.37 7.5,2.74 11.3,4.2 -3.3,-1.19 -6.6,-1.91 -10,-2.28 4,0.37 8,0.73 12,1.19 -3.7,-0.37 -7.4,-0.28 -11.1,0.27 4,-0.64 8,-1.28 12.1,-1.92 -3.4,0.55 -6.7,1.46 -9.8,2.84 3.8,-1.74 7.7,-3.48 11.5,-5.21 -3,1.37 -5.8,3.01 -8.3,5.11 3.3,-2.65 6.6,-5.39 9.8,-8.13 -2.1,1.92 -4.1,4.02 -5.7,6.4 2.3,-3.38 4.6,-6.77 7,-10.06 -1.7,2.56 -3.2,5.3 -4.3,8.14 1.5,-3.75 2.9,-7.5 4.2,-11.34 -1.2,3.38 -2,6.95 -2.4,10.51 0.4,-4.02 0.8,-8.04 1.2,-12.06 -0.4,4.11 -0.3,8.22 0.3,12.25 -0.6,-4.03 -1.3,-8.05 -1.9,-12.07 0.6,3.47 1.6,6.86 3,10.15 -1.7,-3.84 -3.5,-7.77 -5.2,-11.62 1.4,2.93 3,5.68 5,8.23 -2.6,-3.29 -5.4,-6.49 -8,-9.78 1.5,1.92 3.4,3.56 5.4,5.12 -3.3,-2.38 -6.7,-4.75 -10,-7.13 2.1,1.55 4.3,2.65 6.7,3.56 -3.8,-1.37 -7.5,-2.74 -11.3,-4.11 2.1,0.64 4.1,1.19 6.3,1.37 -4.1,-0.36 -8.1,-0.82 -12.1,-1.19 2,0.19 4,0.09 6.1,-0.27 -4,0.73 -8.1,1.37 -12.1,2.01 2.2,-0.46 4.3,-1.1 6.4,-2.01 -3.9,1.74 -7.7,3.47 -11.6,5.21 2.5,-1.19 4.8,-2.65 7,-4.39 -3.3,2.65 -6.5,5.39 -9.8,8.05 2.6,-2.11 4.8,-4.57 6.7,-7.23 -2.4,3.39 -4.7,6.68 -7.1,10.06 2,-2.92 3.7,-6.03 5,-9.33 -1.5,3.76 -2.9,7.51 -4.2,11.34 1,-2.83 1.6,-5.66 1.9,-8.68 -0.4,4.02 -0.7,8.04 -1.2,12.07 0.2,-2.2 0.2,-4.39 -0.2,-6.59 0.7,4.03 1.3,8.14 2,12.17 -0.3,-1.93 -0.9,-3.75 -1.6,-5.58 1.7,3.84 3.5,7.68 5.2,11.61 -0.8,-1.83 -1.8,-3.48 -3,-5.03 2.6,3.29 5.4,6.49 8,9.78 -1.2,-1.46 -2.5,-2.65 -4,-3.74 -5,-4.3 -8.6,-9.52 -10.8,-15.55 -3,-5.48 -4.6,-11.43 -4.5,-17.92 -0.3,-11.34 4.2,-25.23 12.5,-33.37 8.7,-8.78 20.5,-15.46 33.3,-15.27 4.1,0.36 8.1,0.73 12.1,1.19 8.1,1.91 15.2,5.66 21.4,11.24 10.1,7.41 18.3,21.03 21.5,33.01 3.4,12.44 3.8,26.06 0.5,38.58 -3.6,13.99 -9.3,23.87 -18,35.21 -1.5,2.01 -3.4,3.93 -5.3,5.58 -4.9,4.39 -10.5,9.6 -16.6,12.7 -5.3,2.66 -11.7,6.04 -17.9,7.41 -12.4,2.74 -19.1,2.83 -31.6,1.1 -13.1,-1.92 -24.7,-9.05 -34.8,-17.01 -5.2,-4.11 -9.4,-10.06 -13.3,-15.08 -1.7,-2.29 -3,-4.67 -4.2,-7.14 -2.8,-6.03 -6.2,-12.34 -7.7,-18.92 -1.5,-6.5 -2.7,-13.26 -3.1,-19.94 -1.2,-22.49 6.9,-46.63 22.5,-63.18 2.3,-2.38 5,-4.39 7.5,-6.49 2.5,-2.1 5,-4.48 7.9,-6.31 6.3,-4.21 13.6,-7.32 20.8,-9.6 14.1,-4.48 27.6,-4.21 42,-2.29 7.1,0.92 13.8,3.75 20.5,6.31 3.2,1.28 6.1,2.75 9,4.66 6.1,4.12 12.1,7.87 16.9,13.44 3.1,3.66 7.2,8.05 10,12.53 3.1,4.85 5.3,10.52 7.5,15.73 5.5,13.17 5,27.52 3.2,41.33 -0.4,2.92 -1,5.76 -2,8.59 -2.2,6.77 -4.5,13.9 -8.4,19.85 -3,4.48 -6,9.14 -9.5,13.16 -3.7,4.3 -9,8.14 -13.1,11.43 -5.8,4.57 -12.8,7.41 -19.6,9.97 -7.1,2.74 -15.3,4.02 -23,3.65 -12.8,-0.63 -20.8,-2.46 -32.6,-7.58 -13.6,-5.95 -26.8,-18.2 -34.3,-30.91 -9.7,-16.64 -13.9,-36.57 -9,-55.5 3.1,-11.89 10.4,-22.86 21,-29.44 5.4,-3.66 11.3,-5.77 17.7,-6.22 5.9,-1.46 12,-1.37 18,0.27 11.8,3.2 23.3,9.97 29.5,20.94 6.1,10.79 9.2,23.5 6,35.75 v 0"
           style="fill:#666666;fill-opacity:1;fill-rule:nonzero;stroke:none"
           id="path413" />
      </g>
      <g
         id="g415"
         transform="scale(1.12463)"
         style="fill:#666666">
        <path
           d="m 16207.2,4267.91 c 6,3.73 12.3,7.02 19,9.51 -3.6,-1.33 -7.4,-2.67 -11,-4.09 4.4,1.6 9,2.85 13.8,3.29 -4,-0.35 -7.9,-0.71 -11.8,-1.15 2.9,0.26 5.5,0.17 8.4,-0.18 -3.9,0.62 -7.9,1.24 -11.9,1.86 2,-0.35 3.8,-0.88 5.6,-1.6 -3.8,1.7 -7.5,3.38 -11.3,5.07 1.8,-0.88 3.4,-1.77 4.9,-3.02 -3.2,2.67 -6.3,5.25 -9.5,7.92 1.6,-1.34 3,-2.76 4.1,-4.36 -2.2,3.2 -4.5,6.49 -6.8,9.69 1,-1.51 1.8,-3.11 2.6,-4.8 -1.4,3.64 -2.8,7.29 -4.1,11.02 0.5,-1.77 0.9,-3.47 1.1,-5.24 -0.3,3.91 -0.8,7.82 -1.1,11.65 0.1,-2.14 0,-4.36 -0.3,-6.5 0.6,3.92 1.2,7.83 1.9,11.74 -0.6,-2.67 -1.4,-5.15 -2.4,-7.64 1.7,3.73 3.3,7.46 5,11.2 -1.7,-3.65 -3.8,-7.03 -6.4,-10.23 2.7,3.2 5.3,6.41 7.9,9.52 -2.7,-3.11 -5.6,-5.87 -9,-8.27 3.2,2.31 6.5,4.62 9.8,6.84 -3.2,-2.04 -6.4,-3.55 -9.8,-4.89 3.7,1.34 7.4,2.67 11.1,4.1 -5.1,-1.87 -10.2,-3.03 -15.6,-3.56 3.9,0.35 7.8,0.71 11.7,1.15 -5.4,-0.44 -10.7,-0.26 -15.9,0.54 3.9,-0.62 7.8,-1.25 11.7,-1.96 -5.2,0.98 -10.3,2.4 -15.1,4.53 3.7,-1.68 7.5,-3.37 11.2,-5.06 -4.5,2.04 -8.5,4.62 -12.3,7.65 3.2,-2.59 6.3,-5.25 9.5,-7.83 -3.1,2.67 -5.8,5.51 -8.2,8.8 2.3,-3.2 4.6,-6.49 6.9,-9.69 -2.1,3.02 -3.9,6.32 -5.3,9.78 1.4,-3.65 2.8,-7.38 4.1,-11.02 -1.3,3.82 -2.2,7.73 -2.6,11.82 0.4,-3.91 0.8,-7.82 1.1,-11.74 -0.3,4.45 -0.2,8.9 0.6,13.25 -0.7,-3.91 -1.3,-7.82 -1.9,-11.74 0.7,4.36 2,8.54 3.8,12.63 -1.7,-3.73 -3.4,-7.47 -5.1,-11.29 1.7,3.65 3.8,7.03 6.4,10.14 -2.7,-3.2 -5.3,-6.32 -8,-9.52 2.4,2.76 5,5.16 8,7.29 -3.3,-2.31 -6.5,-4.62 -9.8,-6.84 2.4,1.6 5,2.93 7.7,4 -3.7,-1.33 -7.4,-2.67 -11,-4.09 2.6,0.97 5.1,1.6 7.8,1.87 -3.9,-0.36 -7.8,-0.72 -11.7,-1.16 3.1,0.35 6.1,0.26 9.1,-0.18 -3.9,0.62 -7.8,1.25 -11.8,1.87 3.9,-0.62 7.5,-1.78 11,-3.38 -3.7,1.69 -7.4,3.38 -11.2,5.16 3.6,-1.78 6.8,-3.83 9.8,-6.23 -3.1,2.58 -6.3,5.25 -9.5,7.83 2.9,-2.49 5.5,-5.25 7.8,-8.45 -2.3,3.29 -4.6,6.49 -6.8,9.78 1.6,-2.49 3,-5.16 4.2,-7.91 -1.5,3.64 -2.8,7.29 -4.1,11.02 0.9,-2.49 1.4,-4.98 1.7,-7.55 -0.3,3.91 -0.7,7.82 -1.1,11.64 0.3,-2.66 0.2,-5.15 -0.2,-7.82 0.6,3.91 1.3,7.82 1.9,11.74 -0.5,-2.49 -1.2,-4.81 -2.2,-7.12 1.7,3.74 3.4,7.47 5.1,11.2 -1.1,-2.4 -2.5,-4.53 -4.1,-6.57 2.6,3.11 5.3,6.31 7.9,9.51 -1.5,-1.69 -3,-3.11 -4.7,-4.45 3.2,2.32 6.5,4.63 9.8,6.85 -1.8,-1.15 -3.6,-2.13 -5.6,-2.84 3.7,1.33 7.4,2.66 11,4.09 -1.1,-0.45 -2.3,-0.72 -3.6,-0.89 3.9,0.35 7.8,0.8 11.7,1.15 -1.6,-0.09 -3.1,-0.09 -4.7,0.09 3.9,-0.62 7.8,-1.24 11.7,-1.86 -1,0.17 -2,0.53 -3.1,0.97 3.8,-1.78 7.5,-3.46 11.3,-5.16 -1.4,0.72 -2.6,1.43 -3.8,2.32 3.2,-2.67 6.4,-5.25 9.5,-7.92 -1.4,1.25 -2.7,2.58 -3.7,4.09 2.3,-3.29 4.6,-6.49 6.8,-9.78 -0.8,1.25 -1.4,2.49 -1.9,3.92 1.4,-3.74 2.7,-7.38 4.1,-11.03 -0.3,0.98 -0.6,1.95 -0.7,3.02 0.3,-3.91 0.8,-7.82 1.1,-11.73 -0.1,1.06 -0.1,2.04 0,3.11 -0.6,-3.92 -1.2,-7.83 -1.9,-11.74 0.2,1.07 0.5,1.96 0.8,2.93 -1.6,-3.73 -3.3,-7.46 -5,-11.2 0.2,0.62 0.6,1.25 1,1.87 6.4,9.96 8.5,23.29 5.9,34.68 -2.6,11.02 -10.5,23.02 -20.4,28.72 -10.4,5.87 -23,9.07 -34.8,5.78 -11.8,-3.21 -22,-9.87 -28.6,-20.45 -5.6,-8.81 -9.5,-20.37 -8.9,-30.95 0.3,-7.56 1.3,-13.34 3.9,-20.27 3.1,-8.36 4.9,-11.29 10.8,-19.12 1.2,-1.51 2.3,-2.75 3.8,-4.09 4,-3.55 8.1,-7.29 12.8,-9.87 13.4,-7.56 27.8,-9.96 43,-7.11 7,1.33 14.1,3.91 20.2,7.82 10.1,6.49 18.7,13.96 24.9,24.46 9.9,16.62 12.7,34.94 9.6,53.79 -2.4,14.23 -10.2,27.92 -19.7,38.77 -10.3,11.82 -23.3,19.2 -37.6,24.9 -6.5,2.67 -13.8,3.46 -20.6,4.35 -7.4,0.98 -15.4,0.18 -22.6,-1.15 -14,-2.58 -27.3,-9.96 -38,-19.3 -11.5,-10.05 -18.5,-22.58 -24.2,-36.45 -4.1,-9.96 -6.1,-21.44 -6,-32.19 0,-14.94 3.1,-28.01 9.2,-41.53 6.2,-14.05 16.9,-24.36 28.7,-33.79 17.7,-14.14 43.8,-21.52 66.3,-19.74 15.4,1.25 28.7,3.92 42.9,10.76 14,6.85 25.1,17.96 34.1,30.59 22.7,31.83 17.1,81.01 -18.5,101.37 -30.4,17.34 -65.9,9.33 -94.3,-8.27 -10.7,-6.49 -19.1,-15.3 -22.8,-27.57 -3.1,-10.58 -2.3,-24.81 3.4,-34.5 6,-10.49 15.5,-19.74 27.6,-22.76 11.2,-2.76 24.4,-2.85 34.5,3.38 v 0"
           style="fill:#666666;fill-opacity:1;fill-rule:nonzero;stroke:none"
           id="path417" />
      </g>
      <g
         id="g419"
         transform="scale(1.15021)"
         style="fill:#666666">
        <path
           d="m 16223.9,4104.97 c 1.8,1.05 3.6,2 5.4,2.7 -3.5,-1.31 -7.1,-2.61 -10.8,-4 2.2,0.78 4.4,1.22 6.6,1.48 -3.8,-0.35 -7.6,-0.79 -11.4,-1.13 2.2,0.17 4.4,0.08 6.7,-0.26 -3.9,0.6 -7.7,1.21 -11.6,1.82 3.3,-0.52 6.3,-1.48 9.3,-2.87 -3.6,1.65 -7.3,3.31 -10.9,4.96 3,-1.39 5.8,-3.22 8.5,-5.3 -3.2,2.52 -6.2,5.12 -9.3,7.65 3.2,-2.61 6,-5.66 8.4,-8.96 -2.3,3.13 -4.5,6.35 -6.7,9.57 1.9,-2.87 3.6,-5.83 4.8,-9.05 -1.3,3.57 -2.6,7.22 -4,10.78 1,-2.87 1.8,-5.74 2.2,-8.78 -0.5,3.83 -0.8,7.65 -1.2,11.48 0.2,-2.7 0.2,-5.3 -0.2,-8 0.6,3.82 1.2,7.65 1.9,11.47 -0.5,-2.69 -1.3,-5.21 -2.5,-7.73 1.7,3.65 3.4,7.3 5,10.95 -1.4,-2.95 -3.1,-5.74 -5.2,-8.25 2.5,3.04 5.1,6.17 7.6,9.3 -2,-2.53 -4.5,-4.7 -7.1,-6.61 3.1,2.26 6.4,4.43 9.6,6.69 -3.3,-2.26 -6.8,-4.08 -10.5,-5.56 3.5,1.3 7.2,2.7 10.7,4 -4.4,-1.65 -9,-2.7 -13.7,-3.13 3.7,0.34 7.6,0.69 11.4,1.13 -4.4,-0.44 -8.8,-0.26 -13.2,0.35 3.8,-0.61 7.6,-1.22 11.4,-1.83 -4.3,0.78 -8.5,2 -12.6,3.83 3.7,-1.65 7.3,-3.4 11,-5.05 -3.4,1.65 -6.5,3.57 -9.4,5.92 3.1,-2.52 6.2,-5.14 9.2,-7.66 -2.7,2.27 -5,4.79 -7.2,7.57 2.3,-3.13 4.5,-6.35 6.7,-9.48 -1.7,2.52 -3.1,5.13 -4.3,8 1.4,-3.57 2.7,-7.22 4,-10.78 -0.5,1.65 -0.8,3.31 -1.1,4.96 0.4,-3.74 0.8,-7.57 1.1,-11.39 -0.1,2 -0.1,3.91 0.1,5.91 -0.6,-3.83 -1.2,-7.65 -1.8,-11.48 0.3,1.83 0.8,3.48 1.5,5.22 -1.7,-3.65 -3.3,-7.3 -5,-11.04 1,2.08 2,3.82 3.4,5.65 -2.6,-3.13 -5.1,-6.26 -7.7,-9.3 2,2.34 4.2,4.26 6.6,5.99 -3.1,-2.17 -6.4,-4.43 -9.6,-6.69 2.6,1.74 5.4,3.13 8.3,4.17 -3.6,-1.3 -7.1,-2.6 -10.8,-4 3,1.05 6,1.74 9.1,2.09 -3.8,-0.44 -7.6,-0.78 -11.4,-1.22 2.9,0.26 5.9,0.09 8.8,-0.34 -3.8,0.69 -7.6,1.3 -11.5,1.91 5.8,-0.96 11.2,-2.79 16.5,-5.13 -3.8,1.65 -7.4,3.3 -11.1,4.96 8,-3.74 15.3,-8.61 22.6,-13.48 -2.1,23.73 -4.3,47.47 -6.5,71.2 -0.6,-0.52 -1.3,-1.13 -2,-1.56 3.2,2.17 6.4,4.43 9.6,6.69 -1.8,-1.21 -3.6,-2.17 -5.7,-2.87 3.7,1.31 7.2,2.61 10.8,3.91 -1.6,-0.43 -3.2,-0.78 -4.9,-1.04 3.8,0.35 7.6,0.79 11.4,1.13 -1.7,-0.09 -3.3,-0.09 -5,0.09 3.8,-0.61 7.6,-1.22 11.5,-1.83 -2.1,0.35 -4,0.87 -6,1.74 -9.7,4.18 -25,1.39 -33.8,-3.3 -9.9,-5.13 -19.4,-15.91 -22.2,-26.95 -2.8,-11.13 -2.6,-23.56 3.3,-33.73 2.2,-3.22 4.4,-6.35 6.7,-9.57 5.5,-6 12.3,-10.26 20.2,-12.69 10.8,-4.7 24,-4.44 35.3,-2.35 11.7,2.09 22.9,8.35 31.7,16.09 10.7,9.56 15.3,23.55 13.9,37.55 -1.4,14.26 -8.6,25.65 -20.5,33.74 -5.9,3.91 -11.9,7.91 -18.1,11.21 -9.1,4.78 -19,9.82 -29.1,11.91 -13.4,2.7 -24.7,3.57 -38.2,1.05 -10.8,-2 -20.5,-6.79 -29.4,-13.04 -3.4,-2.44 -7,-4.61 -9.9,-7.74 -4.4,-4.61 -8.8,-9.48 -11.8,-15.05 -8.1,-14.86 -10.6,-29.9 -8,-46.59 2,-13.04 9.1,-24.78 17.3,-34.95 5.6,-6.96 13,-13.04 20.7,-17.57 7.3,-4.26 15.4,-8 23.7,-10 8.1,-2 16.8,-3.47 25.1,-3.3 16.3,0.44 33.7,3.74 47.7,12.43 9.3,5.74 16.1,11.3 23,19.56 6.9,8.35 11.1,15.65 15,26.26 2.1,5.57 2.7,11.74 3.4,17.48 0.3,2.52 0.3,4.95 0.1,7.47 -0.9,12.61 -3,22.78 -8.7,34.26 -3.9,8 -9.4,15.73 -15.8,21.91 -10.2,9.82 -19,15.13 -31.9,20.6 -18.8,8 -43.9,6.35 -61.2,-4.52 -10.4,-6.43 -18.6,-14.87 -22.3,-26.95 -3,-10.35 -2.2,-24.26 3.3,-33.74 6,-10.17 15.2,-19.3 27,-22.25 10.9,-2.7 23.9,-2.87 33.7,3.3 v 0"
           style="fill:#666666;fill-opacity:1;fill-rule:nonzero;stroke:none"
           id="path421" />
      </g>
      <g
         id="g423"
         transform="scale(1.17311)"
         style="fill:#666666">
        <path
           d="m 16186.6,3903.04 c 0.9,0.34 1.7,0.6 2.7,0.94 -3.6,-1.28 -7.1,-2.56 -10.6,-3.92 6.6,2.47 13.4,4.6 20.5,5.37 -3.8,-0.34 -7.5,-0.68 -11.3,-1.11 3.2,0.26 6.4,0.17 9.6,-0.25 -3.7,0.59 -7.6,1.19 -11.3,1.79 2,-0.43 3.9,-0.94 5.8,-1.71 -3.6,1.62 -7.2,3.24 -10.7,4.86 1.7,-0.85 3.3,-1.79 4.8,-3.07 -3.1,2.56 -6.1,5.12 -9.1,7.59 1.4,-1.28 2.7,-2.64 3.9,-4.27 -2.2,3.16 -4.3,6.31 -6.6,9.38 1.3,-1.79 2.4,-3.75 3.2,-5.8 -1.3,3.5 -2.6,6.99 -3.9,10.58 0.5,-1.46 0.8,-2.9 1,-4.44 -0.3,3.75 -0.7,7.42 -1.1,11.17 0.2,-1.45 0.1,-2.9 -0.1,-4.35 0.6,3.75 1.2,7.5 1.8,11.26 -0.2,-1.11 -0.5,-2.22 -1,-3.33 1.6,3.67 3.2,7.24 4.9,10.83 -0.6,-1.11 -1.2,-2.05 -1.9,-2.99 2.4,2.99 5,6.05 7.5,9.12 -0.8,-0.93 -1.7,-1.62 -2.6,-2.38 3.2,2.21 6.2,4.43 9.4,6.56 -1.5,-0.94 -3,-1.62 -4.6,-2.22 3.6,1.28 7.1,2.56 10.6,3.84 -1.8,-0.51 -3.5,-0.94 -5.4,-1.11 3.7,0.34 7.5,0.77 11.2,1.11 -1.8,-0.08 -3.6,-0.08 -5.5,0.25 3.7,-0.59 7.5,-1.19 11.3,-1.87 -1.8,0.34 -3.5,0.85 -5.1,1.62 3.6,-1.62 7.2,-3.24 10.8,-4.94 -2.2,1.02 -4.1,2.21 -5.9,3.75 3,-2.56 6.1,-5.12 9.1,-7.59 -2,1.71 -3.8,3.67 -5.4,5.8 2.2,-3.07 4.5,-6.23 6.7,-9.38 -1.9,2.73 -3.4,5.63 -4.6,8.7 1.3,-3.58 2.6,-7.08 3.9,-10.58 -0.9,2.82 -1.6,5.72 -2,8.7 0.4,-3.75 0.7,-7.5 1.1,-11.25 -0.2,2.73 -0.2,5.37 0.2,8.01 -0.6,-3.75 -1.2,-7.5 -1.9,-11.25 0.5,2.3 1.1,4.51 2.1,6.73 -1.6,-3.58 -3.3,-7.24 -4.9,-10.82 1,1.96 2.1,3.66 3.3,5.36 -2.4,-3.06 -5,-6.13 -7.5,-9.12 1.3,1.46 2.8,2.73 4.4,3.93 -3.1,-2.22 -6.2,-4.35 -9.4,-6.57 1.8,1.2 3.6,2.13 5.5,2.9 -3.5,-1.36 -7,-2.64 -10.6,-3.92 2.2,0.77 4.4,1.28 6.7,1.53 -3.7,-0.42 -7.5,-0.76 -11.2,-1.1 2.6,0.17 5.2,0.08 7.8,-0.35 -3.7,0.6 -7.5,1.28 -11.3,1.88 3.3,-0.6 6.4,-1.62 9.4,-2.9 -3.6,1.62 -7.2,3.24 -10.8,4.86 3,-1.45 5.8,-3.15 8.5,-5.28 -3.1,2.55 -6.1,5.02 -9.2,7.58 2.6,-2.13 4.9,-4.51 6.9,-7.24 -2.3,3.15 -4.5,6.31 -6.6,9.37 1.4,-2.21 2.7,-4.51 3.7,-6.99 -1.2,3.58 -2.6,7.08 -3.9,10.57 0.9,-2.21 1.4,-4.43 1.7,-6.81 -0.4,3.75 -0.7,7.49 -1.1,11.25 0.2,-2.48 0.1,-4.86 -0.2,-7.25 0.6,3.75 1.2,7.5 1.8,11.25 -0.5,-2.64 -1.2,-5.11 -2.3,-7.59 1.6,3.59 3.2,7.17 4.8,10.75 -1.2,-2.39 -2.5,-4.61 -4.2,-6.65 2.5,2.98 5,6.05 7.5,9.12 -2.1,-2.56 -4.5,-4.77 -7.1,-6.74 3,2.22 6.2,4.44 9.4,6.65 -3.1,-2.13 -6.3,-3.83 -9.7,-5.11 3.5,1.28 7.1,2.56 10.6,3.92 -3.4,-1.28 -7,-2.13 -10.7,-2.56 3.8,0.43 7.5,0.77 11.3,1.11 -3.3,-0.25 -6.7,-0.17 -9.9,0.26 3.8,-0.6 7.5,-1.2 11.3,-1.79 -3,0.51 -5.8,1.36 -8.7,2.56 3.7,-1.63 7.3,-3.24 10.9,-4.87 -2.6,1.2 -4.9,2.73 -7.1,4.44 3.1,-2.47 6,-5.03 9.1,-7.5 -2.5,2.04 -4.6,4.43 -6.5,6.99 2.3,-3.07 4.5,-6.23 6.7,-9.3 -1.8,2.65 -3.3,5.46 -4.4,8.44 1.2,-3.58 2.5,-7.07 3.9,-10.65 -1.4,3.67 -2.2,7.41 -2.7,11.25 0.4,-3.67 0.8,-7.41 1.1,-11.17 -0.4,4.26 -0.2,8.44 0.5,12.62 -0.6,-3.75 -1.2,-7.5 -1.8,-11.25 0.7,3.83 1.7,7.59 3.3,11.17 -1.6,-3.58 -3.2,-7.17 -4.9,-10.83 1.5,3.32 3.4,6.31 5.6,9.12 -2.5,-3.07 -5,-6.14 -7.6,-9.12 2.2,2.55 4.7,4.86 7.3,6.82 -3,-2.13 -6.2,-4.35 -9.3,-6.57 3.2,2.22 6.5,4.01 10.1,5.37 -3.5,-1.27 -7,-2.55 -10.6,-3.91 4,1.44 8,2.38 12.3,2.81 -3.8,-0.34 -7.5,-0.68 -11.3,-1.11 4.6,0.43 9.2,0.25 13.8,-0.43 -3.8,0.6 -7.5,1.2 -11.4,1.79 4.6,-0.76 9.1,-2.04 13.3,-3.83 -3.6,1.61 -7.2,3.24 -10.8,4.85 4.3,-1.95 8.1,-4.26 11.8,-7.24 -3.1,2.56 -6.2,5.11 -9.2,7.59 3.2,-2.65 5.9,-5.63 8.3,-8.95 -2.2,3.06 -4.4,6.22 -6.5,9.37 2.3,-3.58 4.3,-7.33 5.7,-11.42 -1.2,3.58 -2.5,7.07 -3.9,10.57 1.6,-4.35 2.6,-8.87 3.1,-13.47 -0.4,3.75 -0.8,7.5 -1.1,11.25 0.3,-4.68 0.2,-9.2 -0.5,-13.81 0.6,3.75 1.2,7.51 1.9,11.26 -0.8,-4.52 -2.1,-8.87 -4,-13.05 1.7,3.59 3.3,7.17 4.9,10.75 -1.6,-3.5 -3.7,-6.82 -6.1,-9.81 2.5,2.99 5.1,6.05 7.5,9.04 -2.3,-2.73 -4.8,-5.2 -7.7,-7.33 3.1,2.21 6.2,4.43 9.3,6.65 -2.8,-1.96 -5.7,-3.5 -8.9,-4.69 3.5,1.28 7.1,2.64 10.6,3.92 -3.2,-1.11 -6.4,-1.79 -9.7,-2.22 3.7,0.43 7.4,0.77 11.1,1.2 -3.9,-0.43 -7.9,-0.26 -11.8,0.34 3.7,-0.6 7.5,-1.2 11.2,-1.88 -4.2,0.77 -8.3,1.96 -12.2,3.67 3.5,-1.62 7.1,-3.24 10.7,-4.86 -3.9,1.79 -7.5,4 -10.7,6.73 2.9,-2.56 6,-5.03 9,-7.58 -2.5,2.13 -4.7,4.51 -6.7,7.15 2.3,-3.06 4.4,-6.22 6.6,-9.37 -1.7,2.47 -3.1,5.03 -4.3,7.84 1.4,-3.49 2.7,-7.07 4,-10.57 -1,2.64 -1.7,5.29 -2,8.01 0.3,-3.75 0.8,-7.5 1.1,-11.16 -0.2,2.81 -0.2,5.63 0.3,8.44 -0.6,-3.75 -1.2,-7.59 -1.8,-11.34 0.5,2.81 1.3,5.46 2.4,8.01 -1.7,-3.58 -3.3,-7.16 -4.9,-10.74 1.5,3.5 3.6,6.65 6.1,9.55 -2.6,-2.98 -5.1,-6.05 -7.6,-9.12 2.5,2.98 5.3,5.54 8.4,7.76 -3.1,-2.22 -6.2,-4.44 -9.3,-6.57 3.1,2.13 6.5,3.92 10.1,5.2 -3.6,-1.28 -7.1,-2.56 -10.7,-3.92 3,1.02 6,1.79 9.1,2.05 -3.8,-0.34 -7.5,-0.69 -11.3,-1.11 2.8,0.25 5.5,0.17 8.2,-0.26 -3.8,0.6 -7.5,1.2 -11.3,1.79 2.4,-0.42 4.7,-1.19 7,-2.22 -3.6,1.63 -7.1,3.24 -10.7,4.95 1.1,-0.6 2.2,-1.19 3.3,-1.88 9.6,-5.96 22.2,-8.09 33.3,-5.54 10.5,2.39 22,9.98 27.5,19.52 5.6,9.98 8.7,22 5.5,33.33 -3,11.26 -9.3,21.23 -19.6,27.45 -23.2,14.32 -51.5,14.07 -75.7,2.13 -20.3,-10.05 -38.1,-30.17 -43.8,-52.42 -6.7,-25.91 -0.2,-53.11 18,-72.89 15.9,-17.38 37.8,-26.42 60.9,-28.72 22.4,-2.22 45.7,6.31 62.4,21.23 17.9,16.11 27.2,39.38 29.1,63.08 0.7,9.63 -0.2,19.94 -2.7,29.32 -3.7,14.06 -9.5,24.55 -17.8,36.06 -6.1,8.35 -14.6,15.51 -23.5,20.8 -6,3.57 -12.8,6.56 -19.3,8.95 -3.3,1.27 -6.8,2.13 -10.3,2.72 -14.4,2.56 -27,3.33 -41.5,0.35 -14,-2.9 -25.7,-9.38 -37,-17.82 -19.3,-14.49 -29,-38.79 -31,-62.14 -0.4,-4.86 0.2,-9.55 0.6,-14.41 0.5,-5.11 0.9,-10.14 2.6,-15.09 4.2,-12.87 9.5,-24.55 19.1,-34.61 9.3,-9.72 21,-17.21 34,-21.05 12.8,-3.84 25.1,-3.75 38.2,-1.79 22.3,3.32 42.3,17.47 55,35.8 14.8,21.31 16,51.57 3.4,74.16 -10.9,19.35 -30.7,35.89 -53,40.07 -6.2,1.19 -12.7,2.55 -19.1,2.13 -11.2,-0.85 -18,-2.22 -28.4,-6.56 -11.6,-4.78 -22,-14.58 -28.7,-25.07 -6.6,-10.31 -10.2,-23.27 -10.6,-35.46 -0.2,-13.04 2.9,-24.21 7.9,-36.14 3.4,-8.1 8.8,-15.77 15.2,-21.74 4.2,-3.92 9.1,-8.18 14.2,-11.08 10.2,-5.63 17.2,-7.59 28.5,-8.95 16.8,-1.96 34.5,4.52 47.2,15.26 16.1,13.46 21.9,35.29 18.2,55.41 -5.9,31.79 -36.7,54.72 -68.6,53.44 -7.8,-0.34 -16,-1.28 -23.6,-3.41 -7.7,-2.21 -15.2,-5.28 -22.7,-8.09 -5.3,-2.56 -9.8,-6.31 -13.1,-11.09 -4.2,-4.34 -7.1,-9.37 -8.6,-15.34 -3.1,-10.14 -2.2,-23.78 3.1,-33.07 5.8,-10.06 15,-18.93 26.6,-21.83 3.7,-0.59 7.5,-1.19 11.2,-1.79 7.7,-0.17 15,1.45 21.8,5.03 v 0"
           style="fill:#666666;fill-opacity:1;fill-rule:nonzero;stroke:none"
           id="path425" />
      </g>
      <g
         id="g427"
         transform="scale(1.09233)"
         style="fill:#666666">
        <path
           d="m 15889.9,4705.47 c -19.2,85.23 -9.6,175.04 11,259.17 16.9,69.02 46.2,142.45 112.3,177.69 56.2,30.03 118.2,17.3 153.3,-37.26 43.9,-68.2 23.1,-152.88 -7.4,-221.91 -10.3,-23.44 9.6,-52.27 31.9,-58.95 27.1,-8.06 48.6,8.32 58.9,31.85 32.4,73.33 50.1,160.4 24.6,238.76 -22.9,70.13 -75.8,134.12 -149.7,152.79 -74.8,18.86 -153.6,-8.51 -209.6,-59.41 -59.4,-53.92 -90.8,-132.29 -108.1,-209 -21.8,-96.68 -31.5,-197.48 -9.5,-294.97 13.3,-59.6 105.6,-38.36 92.3,21.24 v 0"
           style="fill:#666666;fill-opacity:1;fill-rule:nonzero;stroke:none"
           id="path429" />
      </g>
      <g
         id="g431"
         transform="scale(1.12196)"
         style="fill:#666666">
        <path
           d="m 15851.1,4470.49 c 8.2,111.95 23.1,239.58 116.3,315.25 34.8,28.26 82.2,42.61 126.6,34.05 43.7,-8.38 75.5,-38.41 88.5,-79.05 17,-52.77 10.5,-110.79 -2.6,-163.56 -14.3,-57.4 73.9,-84.23 88.4,-26.38 31.7,127.63 22.2,288.51 -116.3,347.25 -137,58.29 -278.3,-39.4 -336.3,-161.42 -39.3,-82.53 -50.1,-173.18 -56.7,-263.37 -4.4,-59.19 87.8,-61.95 92.1,-2.77 v 0"
           style="fill:#666666;fill-opacity:1;fill-rule:nonzero;stroke:none"
           id="path433" />
      </g>
      <g
         id="g435"
         transform="scale(1.15033)"
         style="fill:#666666">
        <path
           d="m 15861.5,4209.66 c 0.5,72.24 14.4,142.3 42,209.07 22,53.2 57,106.23 109.4,133.26 48.6,25.21 105.8,22 145.6,-17.73 43.2,-43.21 53.6,-107.01 42,-165.35 -4.7,-23.81 5.4,-48.5 30.3,-55.98 21.6,-6.43 51.2,6.35 55.9,30.25 13.3,66.94 10.4,137.7 -22.8,198.73 -29.6,54.76 -83.2,100.49 -145.2,112.4 -68.2,13.04 -135.2,-8.08 -189.5,-49.81 -51.6,-39.73 -85.5,-97.8 -110.5,-156.82 -31.4,-74.07 -46.6,-155 -47.2,-235.33 -0.2,-57.72 89.7,-60.76 90,-2.69 v 0"
           style="fill:#666666;fill-opacity:1;fill-rule:nonzero;stroke:none"
           id="path437" />
      </g>
      <g
         id="g439"
         transform="scale(1.17706)"
         style="fill:#666666">
        <path
           d="m 15895.1,4023.77 c 7.8,62.79 28.2,124.64 59.1,179.77 27.5,49.11 63.5,101.36 114.3,128.71 22.2,11.98 45,17.59 69.7,14.53 20.6,-2.55 39.8,-11.64 51.7,-29.23 26.7,-39.25 8.3,-102.88 -4.2,-147.23 -15.2,-54.37 68.9,-79.86 84.3,-25.14 15.5,54.96 30,116.9 14,173.48 -17,60.23 -65,103.22 -126.8,113.59 -129.7,21.66 -228.6,-89.63 -283.7,-193.45 -35.3,-66.61 -57,-137.72 -66.3,-212.4 -2.8,-23.61 20.5,-44.6 42.7,-45.28 25.6,-0.76 42.3,19.03 45.2,42.65 v 0"
           style="fill:#666666;fill-opacity:1;fill-rule:nonzero;stroke:none"
           id="path441" />
      </g>
      <g
         id="g443"
         transform="scale(1.19501)"
         style="fill:#666666">
        <path
           d="m 15947.1,3846.99 c 19.2,96.48 65.5,182.68 136.1,249.12 17.1,16.07 36,34.48 57.6,44.69 9.8,4.68 14.9,6.02 23.9,4.43 -6.1,1.09 5.7,-2.09 6.8,-2.51 -5.2,2.01 8.3,-5.02 10.1,-6.28 -4.5,3.27 5.6,-5.43 6.9,-6.94 4.7,-5.27 3.4,-3.35 6.1,-8.2 4.5,-7.79 6.6,-12.72 7.9,-23.18 3,-24.19 -5.7,-49.29 -16.8,-69.38 -11.3,-20.49 -6.9,-46.77 13.7,-59.66 19.1,-11.96 48.3,-6.86 59.7,13.72 28.6,51.72 40.9,111.89 17.4,168.04 -19.8,47.19 -71.1,84.01 -123.1,81.17 -55.5,-3.02 -102.6,-45.44 -140.1,-83.1 -35.2,-35.4 -66.3,-75.9 -90.6,-119.58 -27.4,-49.2 -47.6,-102.34 -58.6,-157.57 -4.5,-22.93 5.2,-46.78 29.1,-53.89 20.9,-6.19 49.3,6.03 53.9,29.12 v 0"
           style="fill:#666666;fill-opacity:1;fill-rule:nonzero;stroke:none"
           id="path445" />
      </g>
      <g
         id="g447"
         transform="scale(1.20631)"
         style="fill:#666666">
        <path
           d="m 16107.7,3777.56 c 22.7,-16.41 48.6,-34.4 74.2,-46.09 -13.4,6.14 27,-28.27 9.4,-2.24 0.4,-0.66 -1.4,-3.06 -1.2,-3.81 1.5,-9.28 2.5,5.14 -1.4,-3.23 -2.7,-5.72 -5.8,-11.36 -8.7,-17 -19.9,-37.96 -42.1,-74.85 -64,-111.66 -78.5,-131.72 -160.5,-261.46 -243,-390.7 -230.7,-361.59 -468.1,-719.22 -714.8,-1070.12 -126.8,-180.31 -255.9,-359.36 -393,-531.96 12.5,6.72 25.2,13.43 37.7,20.15 -232.2,32.91 -479.5,105.94 -712.4,164.3 -324.4,81.32 -648.1,165.47 -972.4,247.86 -128.1,32.58 -256.3,65.49 -385.2,95.42 9.6,-17.82 19.2,-35.56 28.9,-53.39 8.9,42.28 23.4,78.18 47.3,114.32 30.4,46.17 -42.4,91.6 -72.7,45.51 -27.4,-41.7 -46.5,-86.46 -56.9,-135.29 -4.5,-21.55 4.8,-47.83 28.9,-53.38 653.4,-151.46 1296.8,-346.35 1953.1,-485.37 42.1,-8.95 91.5,-25.2 134.7,-25.12 38.7,0 59.4,41.62 80.9,69.39 27.9,35.64 55.4,71.62 82.6,107.85 119,158 233.5,319.32 346.3,481.8 231.7,333.83 456.1,673.04 673.8,1016.16 80.6,126.91 161.1,254.16 236.6,384.15 18.4,31.66 40.2,64.32 52.9,98.81 30.7,82.57 -63.3,118.21 -116.1,156.35 -44.8,32.33 -90.1,-40.54 -45.5,-72.71 v 0"
           style="fill:#666666;fill-opacity:1;fill-rule:nonzero;stroke:none"
           id="path449" />
      </g>
      <g
         id="g451"
         transform="scale(1.212)"
         style="fill:#666666">
        <path
           d="m 16136.4,3586.39 c 28.8,-20.38 60.7,-37.55 86.7,-61.64 -1.6,17.16 -3.2,34.33 -4.8,51.49 -188,-340.02 -405.5,-664.69 -620.7,-987.96 -212.9,-319.8 -429.7,-637.04 -650.5,-951.48 -32.2,-45.79 -64.4,-91.59 -96.9,-137.05 -16.3,-22.69 -39.6,-46.37 -52,-71.37 -4.5,-8.91 -5.3,2.06 2.3,2.56 -9.8,-0.66 32.4,16.58 27,10.07 -2.7,-3.38 -23.5,3.38 -15.5,2.06 -38.2,6.44 -76.2,14.03 -114.1,21.54 -328.1,64.52 -655,135.72 -981.3,208.82 -205.1,45.96 -410.2,92.99 -614.3,143.65 -136.1,33.74 -274.4,65.92 -406.8,112.96 10.2,-14.03 20.3,-28.06 30.5,-42.17 1.9,20.13 16.1,35.15 27.4,50.99 18.5,26.07 34.1,52.48 47.6,81.6 22.8,49.09 -49.3,94.97 -72.4,45.22 -27.5,-59.41 -81.6,-108.09 -87.9,-175.25 -1.9,-19.39 13.3,-36.14 30.4,-42.16 115.5,-41.09 235.7,-70.05 354.5,-99.92 181,-45.63 362.8,-87.95 544.9,-129.29 347,-78.8 694.8,-154.45 1043.7,-224.51 47.8,-9.57 95.6,-19.14 143.6,-27.97 21.5,-3.96 46.2,-12.04 68.2,-10.97 29.3,1.49 41.9,23.76 57.5,44.8 24.1,32.76 47.6,65.93 71.1,99.1 208.3,293.64 411.7,590.84 612.4,889.6 230.4,342.66 460.8,686.96 668.2,1044.14 18.8,32.43 37.4,65.02 55.5,97.77 8.6,15.43 9.3,38.45 -4.7,51.49 -32,29.62 -68.9,51.24 -104.3,76.23 -44.9,31.77 -90,-40.67 -45.3,-72.35 v 0"
           style="fill:#666666;fill-opacity:1;fill-rule:nonzero;stroke:none"
           id="path453" />
      </g>
      <g
         id="g455"
         transform="scale(1.21665)"
         style="fill:#666666">
        <path
           d="m 16125.5,3355.36 c 12.1,-8.79 70.1,-33.29 74,-46.03 -7,23.18 -31.4,-25.72 -36.4,-33.37 -12.5,-19.48 -25.2,-38.96 -37.8,-58.44 -46.7,-72.41 -93.2,-144.99 -139.6,-217.56 -92.5,-144.91 -184.5,-290.06 -277.2,-434.72 -183.4,-286.03 -369.6,-570.26 -567.3,-846.5 -113.7,-158.8 -231.2,-314.72 -353.7,-466.78 12.5,6.66 24.9,13.24 37.3,19.97 -330.9,44.56 -657.5,116.64 -980.8,199.41 -166.9,42.74 -333.1,88.52 -498.8,135.94 -83.6,23.92 -167.2,48.33 -250.6,72.99 -86.1,25.4 -172.4,58.11 -259.4,79.15 52.9,-12.74 77.6,68.63 24.2,81.54 -51.1,12.41 -97.6,-25.4 -97.6,-78.91 -0.1,-69.7 73.2,-93.2 128,-109.64 176.7,-53.1 353.7,-105.13 531.3,-155.1 347.1,-97.73 697,-187.98 1051.8,-254.14 78.9,-14.71 158.3,-28.2 237.7,-40.36 34.8,-5.26 82.2,-20.47 117.1,-15.37 33.4,4.85 56,49.4 75.4,73.81 111.1,139.89 217.9,283.07 321.6,428.47 203.1,284.64 394.2,577.65 582.6,872.07 106.9,167.18 213,334.85 320.2,501.87 26.8,41.83 53.7,83.67 80.7,125.51 22.5,34.77 59.1,74.3 71.4,114.33 20.4,66.66 -68,94.03 -109,124.03 -44.1,32.3 -89,-39.95 -45.1,-72.17 v 0"
           style="fill:#666666;fill-opacity:1;fill-rule:nonzero;stroke:none"
           id="path457" />
      </g>
      <g
         id="g459"
         transform="scale(1.14434)"
         style="fill:#666666">
        <path
           d="m 14916.9,3979.31 c 217.9,-92.28 442.1,-168.57 671.5,-226.94 112.4,-28.58 225.8,-52.34 339.9,-72.97 113.6,-20.53 226.6,-41.59 332.6,-88.96 26.4,-11.8 39.1,31.64 12.9,43.35 -102.8,45.87 -212.4,67.28 -322.6,87.12 -117.4,21.15 -234.2,45.36 -349.9,74.8 -229.3,58.38 -453.6,134.66 -671.4,226.86 -26.8,11.36 -39.5,-32.07 -13,-43.26 v 0"
           style="fill:#666666;fill-opacity:1;fill-rule:nonzero;stroke:none"
           id="path461" />
      </g>
      <g
         id="g463"
         transform="scale(1.13511)"
         style="fill:#666666">
        <path
           d="m 14870.5,3785.98 c 457.6,-159.02 920.6,-302.09 1388,-429.04 28.3,-7.66 41.5,35.95 13,43.7 -467.4,126.95 -930.3,270.02 -1387.9,429.03 -27.7,9.6 -40.8,-34.09 -13.1,-43.69 v 0"
           style="fill:#666666;fill-opacity:1;fill-rule:nonzero;stroke:none"
           id="path465" />
      </g>
      <g
         id="g467"
         transform="scale(1.1238)"
         style="fill:#666666">
        <path
           d="m 14866.4,3549.13 c 466.9,-139.71 931.6,-287.51 1392.4,-446.26 28,-9.61 41.2,34.53 13.2,44.14 -460.8,158.75 -925.6,306.55 -1392.5,446.25 -28.3,8.54 -41.6,-35.59 -13.1,-44.13 v 0"
           style="fill:#666666;fill-opacity:1;fill-rule:nonzero;stroke:none"
           id="path469" />
      </g>
      <g
         id="g471"
         transform="scale(1.09633)"
         style="fill:#666666">
        <path
           d="m 15832.7,2542.66 c 144.6,-22.25 286.8,-57.92 425.1,-105.44 28.7,-9.85 42.2,35.39 13.5,45.24 -142.3,48.89 -288.4,84.47 -437.1,107.36 -30,4.65 -31.2,-42.6 -1.5,-47.16 v 0"
           style="fill:#666666;fill-opacity:1;fill-rule:nonzero;stroke:none"
           id="path473" />
      </g>
      <g
         id="g475"
         transform="scale(1.09242)"
         style="fill:#666666">
        <path
           d="m 15814,2423.33 c 151.8,-33.23 300.4,-79.28 444.4,-137.59 28.2,-11.44 41.6,33.97 13.5,45.41 -144,58.31 -292.6,104.35 -444.3,137.58 -29.6,6.41 -43.5,-38.9 -13.6,-45.4 v 0"
           style="fill:#666666;fill-opacity:1;fill-rule:nonzero;stroke:none"
           id="path477" />
      </g>
      <path
         d="m 13687.7,5342.4 c -12.7,-1.9 -25,1.5 -34.6,9 -9.7,7.5 -15.9,19.1 -17.4,32.6 -2.4,27.2 17.8,49.9 43.3,50.4 25.9,0.5 47.2,-18.3 49.3,-41.9 1.4,-11.9 -3,-23.2 -10.1,-32.3 -7.1,-9 -17.8,-15.8 -30.5,-17.8"
         style="fill:#666666;fill-opacity:1;fill-rule:nonzero;stroke:none"
         id="path651" />
      <path
         d="m 13729.2,5181.6 c -23.8,-9 -51.1,4.1 -59.1,30.1 -8.1,26 7.1,52.3 32.1,58.3 25,5.9 49.6,-8.1 56.8,-30.9 7,-22.8 -5.6,-48.3 -29.8,-57.5"
         style="fill:#666666;fill-opacity:1;fill-rule:nonzero;stroke:none"
         id="path653" />
      <path
         d="m 13801.5,5032.1 c -11,-6.7 -23.6,-8.2 -35.4,-5 -11.7,3.2 -22,11.4 -28.5,23.2 -12.7,23.9 -3.1,52.5 20.2,63.1 23.4,10.8 50.6,1.9 61.8,-19.3 5.9,-10.5 6.4,-22.7 3.3,-33.9 -3.1,-11.1 -10.4,-21.5 -21.4,-28.1"
         style="fill:#666666;fill-opacity:1;fill-rule:nonzero;stroke:none"
         id="path655" />
      <path
         d="m 13900,4898.3 c -18.9,-17.1 -49.2,-14.9 -66,6.2 -17.1,21.1 -12.7,51.1 8.3,65.9 21,14.9 49.1,10.9 64.2,-7.7 14.9,-18.7 12.7,-47 -6.5,-64.4"
         style="fill:#666666;fill-opacity:1;fill-rule:nonzero;stroke:none"
         id="path657" />
      <path
         d="m 14021.6,4785.2 c -7.8,-10.2 -19.1,-16.3 -31.2,-17.6 -12,-1.2 -24.6,2.7 -35,11.3 -20.4,17.8 -22,47.7 -4,66.3 17.7,18.3 46.5,20.1 64.5,4.3 9.3,-7.7 14.3,-18.8 15.4,-30.4 1.1,-11.4 -1.9,-23.8 -9.7,-33.9"
         style="fill:#666666;fill-opacity:1;fill-rule:nonzero;stroke:none"
         id="path659" />
      <path
         d="m 14162.5,4697.3 c -5.6,-11.5 -15.4,-19.6 -26.9,-23.1 -11.6,-3.5 -25.1,-2.7 -36.7,4.2 -23.8,13.2 -30.8,42.9 -16.8,64.3 14.1,21.6 41.5,28.2 62.4,16.8 10.3,-6.2 17.6,-15.5 20.9,-26.7 3.3,-11.1 2.8,-23.9 -2.9,-35.5"
         style="fill:#666666;fill-opacity:1;fill-rule:nonzero;stroke:none"
         id="path661" />
      <path
         d="m 14318.7,4640.9 c -3,-12.5 -10.9,-22.6 -21.5,-28.7 -10.6,-5.8 -23.8,-7.3 -36.8,-3.5 -26.1,8.4 -39.4,35.2 -30,59.3 9.2,23.7 34.9,36.8 57.4,29.5 11.5,-3.3 20.4,-11.4 26,-21.7 5.7,-9.9 7.9,-22.4 4.9,-34.9"
         style="fill:#666666;fill-opacity:1;fill-rule:nonzero;stroke:none"
         id="path663" />
      <path
         d="m 14483.4,4622.4 c 0.6,-12.9 -4.2,-24.6 -13.1,-33.3 -8.8,-8.4 -21.6,-13.6 -35.5,-12.8 -28,1.6 -47.3,25.3 -43.5,50.7 3.7,25.4 25.5,43.4 48.4,42.2 11.6,-0.7 21.9,-5.9 29.8,-14.3 7.9,-8.2 13.4,-19.7 13.9,-32.5"
         style="fill:#666666;fill-opacity:1;fill-rule:nonzero;stroke:none"
         id="path665" />
      <path
         d="m 14642.6,4665 c 6.5,-11.1 7.6,-23.7 3.1,-35.7 -2.2,-6.1 -5.9,-11.3 -10.7,-16.1 -4.7,-4.9 -10.7,-8.7 -17.6,-11.3 -6.8,-2.8 -13.8,-3.7 -20.5,-3.3 -6.7,0.2 -13,1.9 -18.5,4.9 -11.1,5.7 -18.9,15.8 -21.7,28.4 -2.9,12.4 -0.6,25 4.5,35 2.6,5 5.8,9.5 9.6,13.3 3.9,3.7 8.4,6.5 13.4,8.5 5.1,2 10.4,2.6 15.6,2.6 5.3,-0.1 10.9,-1.6 15.9,-3.5 10.1,-4 20.4,-11.8 26.9,-22.8"
         style="fill:#666666;fill-opacity:1;fill-rule:nonzero;stroke:none"
         id="path667" />
      <path
         d="m 14750.5,4787.8 c 11.9,-4.7 20.5,-14.1 24.1,-26.4 2,-6.3 2.1,-12.9 1.1,-19.7 -1,-7 -3.7,-13.9 -7.9,-20.1 -4,-6.5 -9.4,-11.5 -15.2,-15.2 -5.8,-3.8 -12,-6.1 -18.3,-6.8 -12.7,-1.7 -24.6,2.3 -34,11.2 -9.2,8.8 -14.4,20.6 -16,31.5 -0.7,5.4 -0.7,10.9 0.1,16.1 1,5 2.9,9.7 5.6,14.1 2.9,4.3 6.6,7.8 10.7,10.7 4.2,2.8 9.4,4.8 14.5,6.4 10.5,2.8 23.4,3 35.3,-1.8"
         style="fill:#666666;fill-opacity:1;fill-rule:nonzero;stroke:none"
         id="path669" />
      <path
         d="m 14742.6,4948.3 c 11,6.2 24.4,7.3 35.9,1.7 11.8,-5.3 22.2,-17.2 26.2,-32.9 4.1,-15.6 0.5,-31.3 -7,-41.6 -8.1,-10.5 -19.6,-15.9 -32.4,-15.7 -12.9,0.2 -24.7,5.2 -33.2,11.4 -9.1,6.2 -15,13.7 -17.5,22.7 -2.3,9.1 -0.5,18.8 4.2,28.6 5,9.8 12.4,19.5 23.8,25.8"
         style="fill:#666666;fill-opacity:1;fill-rule:nonzero;stroke:none"
         id="path671" />
      <path
         d="m 14618,5053.5 c 4.6,11.9 14,21.1 26,24.8 12,3.8 26.7,2.3 39.5,-5.5 12.9,-7.8 21,-20.3 23.1,-32.7 2.1,-12.7 -1.5,-24.9 -10.1,-34.4 -8.6,-9.6 -20.1,-15.1 -30.9,-17 -11,-2.1 -21.5,-0.8 -30.4,4.7 -9,5.4 -15,14.3 -18.3,25 -3.1,10.8 -3.6,23.1 1.1,35.1"
         style="fill:#666666;fill-opacity:1;fill-rule:nonzero;stroke:none"
         id="path673" />
      <path
         d="m 14454.2,5070 c -1.6,12.7 2.2,25.1 10.3,34.3 8.2,9.2 20.8,15.3 35.1,15.5 14.4,0.3 27.4,-5.5 35.8,-14.6 8.6,-9.2 12.5,-21.2 11,-34 -1.5,-12.7 -7.8,-23.9 -15.9,-31.6 -8.2,-7.8 -18.3,-12.6 -29.5,-12.7 -21.9,-0.3 -43.1,17.6 -46.8,43.1"
         style="fill:#666666;fill-opacity:1;fill-rule:nonzero;stroke:none"
         id="path675" />
      <path
         d="m 14294.6,5025.1 c -9.7,23.4 2.1,52.2 28,60.7 25.8,8.9 52.8,-5.5 59.2,-30.3 6.4,-24.9 -6.7,-49.9 -29.1,-57.6 -22.6,-7.5 -48.2,3.2 -58.1,27.2"
         style="fill:#666666;fill-opacity:1;fill-rule:nonzero;stroke:none"
         id="path677" />
      <path
         d="m 14147,4948.9 c -13.9,21.5 -6.7,50.5 16.3,64.7 23.9,12.8 52.7,3.9 64,-19 11.4,-23.1 3.2,-50.5 -17.9,-61.8 -20.4,-12.6 -48.4,-5.4 -62.4,16.1"
         style="fill:#666666;fill-opacity:1;fill-rule:nonzero;stroke:none"
         id="path679" />
      <path
         d="m 14014.9,4848.2 c -17.5,18.9 -15,48.2 5.5,65.7 20.2,17.9 50.7,13.5 65.9,-7.1 15.3,-20.7 11.5,-48.4 -6.4,-64.5 -18.4,-15.6 -47.6,-12.8 -65,5.9"
         style="fill:#666666;fill-opacity:1;fill-rule:nonzero;stroke:none"
         id="path681" />
      <path
         d="m 13902.4,4725.9 c -20.1,15.5 -24.3,46.3 -5.9,66.1 17.8,20.1 47.3,22 65.8,4.2 18.5,-17.7 20.6,-46.8 4.6,-64.9 -16.5,-17.6 -43.9,-21.3 -64.5,-5.4"
         style="fill:#666666;fill-opacity:1;fill-rule:nonzero;stroke:none"
         id="path683" />
      <path
         d="m 13810.9,4587.2 c -22.6,12.2 -30.2,41.1 -17,64.5 14.6,22.6 43.9,28.9 65.1,14.4 21.2,-14.5 27.5,-42.5 14.3,-62.8 -11.8,-21 -39.7,-28.2 -62.4,-16.1"
         style="fill:#666666;fill-opacity:1;fill-rule:nonzero;stroke:none"
         id="path685" />
      <path
         d="m 13743,4435.6 c -24.3,8.2 -36.2,35.2 -26.4,60.4 9.1,25.3 38.1,36 61.2,25.2 23.4,-10.9 33.2,-37 25.1,-59.8 -8.7,-22.4 -35.5,-34 -59.9,-25.8"
         style="fill:#666666;fill-opacity:1;fill-rule:nonzero;stroke:none"
         id="path687" />
      <path
         d="m 13703.3,4274.3 c -25.1,3.7 -43.8,28.7 -37.2,55 5.9,26.3 30.8,42.2 55.6,35.5 24.8,-6.7 40.7,-31.1 35.4,-54.6 -6,-23.3 -28.1,-39.7 -53.8,-35.9"
         style="fill:#666666;fill-opacity:1;fill-rule:nonzero;stroke:none"
         id="path689" />
      <path
         d="m 13692.9,4108.6 c -25.7,-1.1 -46.9,20.1 -47.4,47.2 1.5,27 23.8,47.2 49.3,45.1 25.7,-2.1 45.1,-23.2 43.7,-47.1 0.5,-23.9 -20,-44.2 -45.6,-45.2"
         style="fill:#666666;fill-opacity:1;fill-rule:nonzero;stroke:none"
         id="path691" />
      <path
         d="m 13712.7,3943.7 c -25,-5.7 -49.2,11.3 -54,37.9 -5.3,26.5 14.1,50.6 39.5,53.3 25.7,2.7 47.4,-14.6 52.3,-38.2 4.2,-23.6 -12.8,-47.4 -37.8,-53"
         style="fill:#666666;fill-opacity:1;fill-rule:nonzero;stroke:none"
         id="path693" />
      <path
         d="m 13762.3,3785.1 c -23.5,-9.7 -52.2,2 -60.2,27.8 -8.6,25.5 4.5,52 29.1,59.2 24.7,7.1 51,-5.6 58.6,-28.4 7.1,-23.1 -3.5,-48.7 -27.5,-58.6"
         style="fill:#666666;fill-opacity:1;fill-rule:nonzero;stroke:none"
         id="path695" />
      <path
         d="m 13837.2,3636.8 c -21.8,-13.6 -50.7,-5.9 -64.4,17.2 -12.3,24 -3.3,52.5 19.8,63.7 23.1,11.2 50.6,2.7 61.6,-18.8 12.4,-20.7 4.8,-48.5 -17,-62.1"
         style="fill:#666666;fill-opacity:1;fill-rule:nonzero;stroke:none"
         id="path697" />
      <path
         d="m 13934.9,3502.4 c -19.3,-17 -48.7,-13.8 -65.6,7.1 -17.4,20.6 -12.1,51 8.7,65.7 21.1,14.9 48.6,10.3 64.3,-8.1 15.2,-18.7 11.8,-47.7 -7.4,-64.7"
         style="fill:#666666;fill-opacity:1;fill-rule:nonzero;stroke:none"
         id="path699" />
      <path
         d="m 14054.1,3386.7 c -16,-19.8 -46.8,-23.1 -66.1,-4.3 -19.8,18.4 -21,47.9 -2.7,65.9 18.3,18.1 47.4,19.5 65.1,3.1 17.2,-16.9 20,-44.5 3.7,-64.7"
         style="fill:#666666;fill-opacity:1;fill-rule:nonzero;stroke:none"
         id="path701" />
      <path
         d="m 14191.3,3293.1 c -12.3,-22.6 -41.4,-29.9 -64.8,-16.4 -22.4,15.2 -28.4,44.5 -13.5,65.4 14.9,20.9 43.1,26.9 62.9,13.4 20.8,-11.9 27.7,-39.9 15.4,-62.4"
         style="fill:#666666;fill-opacity:1;fill-rule:nonzero;stroke:none"
         id="path703" />
      <path
         d="m 14343,3225.5 c -7.9,-24.5 -34.9,-36.6 -60.2,-27 -25.7,8.8 -36.3,38.1 -25.6,61.2 10.9,23.5 36.8,33 59.5,25.3 22.4,-8.4 34.2,-35.1 26.3,-59.5"
         style="fill:#666666;fill-opacity:1;fill-rule:nonzero;stroke:none"
         id="path705" />
      <path
         d="m 14504.8,3188 c -3.3,-25.2 -27.9,-44.1 -54.3,-38 -26.5,5.4 -42.8,30.1 -36.5,55 6.3,24.9 30.5,41.2 54.1,36.3 23.4,-5.5 40.1,-27.6 36.7,-53.3"
         style="fill:#666666;fill-opacity:1;fill-rule:nonzero;stroke:none"
         id="path707" />
      <path
         d="m 14670.7,3178.8 c 0.9,-25.6 -20.1,-46.9 -47,-47.3 -27,1.4 -47.3,23.3 -45.4,49 1.9,25.6 22.9,45.3 47,44 24.1,0.4 44.4,-20 45.4,-45.7"
         style="fill:#666666;fill-opacity:1;fill-rule:nonzero;stroke:none"
         id="path709" />
      <path
         d="m 14835.8,3196.8 c 5.2,-25.1 -12.2,-49.1 -38.7,-53.4 -26.5,-4.9 -50.3,14.9 -52.7,40.3 -2.4,25.8 15.2,47.2 39,51.7 23.8,3.9 47.3,-13.4 52.4,-38.6"
         style="fill:#666666;fill-opacity:1;fill-rule:nonzero;stroke:none"
         id="path711" />
      <path
         d="m 14995.6,3242.5 c 9.2,-23.9 -3.4,-52 -29.3,-59.4 -25.7,-8 -51.9,5.7 -58.5,30.5 -6.5,24.8 6.9,50.8 29.9,58 23.3,6.5 48.7,-5 57.9,-29.1"
         style="fill:#666666;fill-opacity:1;fill-rule:nonzero;stroke:none"
         id="path713" />
      <path
         d="m 15145.7,3313.6 c 13.1,-22 4.8,-50.9 -18.7,-64 -24.3,-11.7 -52.6,-2.1 -63.2,21.3 -10.6,23.4 -1.5,50.8 20.3,61.2 20.9,11.8 48.4,3.6 61.6,-18.5"
         style="fill:#666666;fill-opacity:1;fill-rule:nonzero;stroke:none"
         id="path715" />
      <path
         d="m 15281.5,3409.3 c 16.9,-19.3 13.4,-48.7 -7.8,-65.5 -20.8,-17.4 -51.4,-11.5 -65.7,9.5 -14.6,21.5 -9.4,48.6 8.9,64.1 18.8,14.9 47.7,11.3 64.6,-8.1"
         style="fill:#666666;fill-opacity:1;fill-rule:nonzero;stroke:none"
         id="path717" />
      <g
         id="g847"
         transform="scale(1.07394)"
         style="fill:#666666">
        <path
           d="m 16195.2,5742.2 c -32.3,0 -58.4,-26.26 -58.4,-58.39 0,-32.22 26.1,-58.38 58.4,-58.38 32.1,0 58.2,26.16 58.2,58.38 0,32.13 -26.1,58.39 -58.2,58.39 z m 0,-163.33 c -58,0 -105,47.12 -105,104.94 0,57.83 47,104.94 105,104.94 57.8,0 104.8,-47.11 104.8,-104.94 0,-57.82 -47,-104.94 -104.8,-104.94"
           style="fill:#666666;fill-opacity:1;fill-rule:nonzero;stroke:none"
           id="path849" />
      </g>
      <path
         d="m 14862.7,2459.4 c -34.6,0 -62.7,-28.1 -62.7,-62.6 0,-34.6 28.1,-62.7 62.7,-62.7 34.5,0 62.7,28.1 62.7,62.7 0,34.5 -28.2,62.6 -62.7,62.6 z m 0,-175.3 c -62.1,0 -112.7,50.6 -112.7,112.7 0,62.1 50.6,112.6 112.7,112.6 62.1,0 112.7,-50.5 112.7,-112.6 0,-62.1 -50.6,-112.7 -112.7,-112.7"
         style="fill:#666666;fill-opacity:1;fill-rule:nonzero;stroke:none"
         id="path851" />
      <g
         id="g853"
         transform="scale(1.1554)"
         style="fill:#666666">
        <path
           d="m 16191.6,1131.38 c -35.9,0 -65,-29.16 -65,-65.08 0,-35.92 29.1,-65.09 65,-65.09 35.9,0 65.1,29.17 65.1,65.09 0,35.92 -29.2,65.08 -65.1,65.08 z m 0,-173.442 c -59.8,0 -108.3,48.552 -108.3,108.362 0,59.72 48.5,108.36 108.3,108.36 59.8,0 108.4,-48.64 108.4,-108.36 0,-59.81 -48.6,-108.362 -108.4,-108.362"
           style="fill:#666666;fill-opacity:1;fill-rule:nonzero;stroke:none"
           id="path855" />
      </g>
      <g
         id="g857"
         transform="scale(1.28141)"
         style="fill:#666666">
        <path
           d="m 16163.2,3326.8 c -53.9,0 -97.8,-43.86 -97.8,-97.78 0,-53.93 43.9,-97.78 97.8,-97.78 53.9,0 97.8,43.85 97.8,97.78 0,53.92 -43.9,97.78 -97.8,97.78 z m 0,-234.58 c -75.4,0 -136.8,61.33 -136.8,136.8 0,75.46 61.4,136.8 136.8,136.8 75.5,0 136.8,-61.34 136.8,-136.8 0,-75.47 -61.3,-136.8 -136.8,-136.8"
           style="fill:#666666;fill-opacity:1;fill-rule:nonzero;stroke:none"
           id="path859" />
      </g>
      <path
         d="m 13485,2309.2 c -20.8,0 -37.6,-16.9 -37.6,-37.7 0,-20.7 16.8,-37.6 37.6,-37.6 20.7,0 37.6,16.9 37.6,37.6 0,20.8 -16.9,37.7 -37.6,37.7 z m 0,-125.3 c -48.3,0 -87.6,39.3 -87.6,87.6 0,48.3 39.3,87.7 87.6,87.7 48.3,0 87.6,-39.4 87.6,-87.7 0,-48.3 -39.3,-87.6 -87.6,-87.6"
         style="fill:#666666;fill-opacity:1;fill-rule:nonzero;stroke:none"
         id="path867" />
      <g
         id="g869"
         transform="scale(1.14771)"
         style="fill:#666666">
        <path
           d="m 16234.6,5918.73 c -12.1,0 -21.9,-9.84 -21.9,-21.86 0,-12.03 9.8,-21.87 21.9,-21.87 12.1,0 21.8,9.84 21.8,21.87 0,12.02 -9.7,21.86 -21.8,21.86 z m 0,-87.3 c -36.1,0 -65.5,29.36 -65.5,65.44 0,36.07 29.4,65.43 65.5,65.43 36,0 65.4,-29.36 65.4,-65.43 0,-36.08 -29.4,-65.44 -65.4,-65.44"
           style="fill:#666666;fill-opacity:1;fill-rule:nonzero;stroke:none"
           id="path871" />
      </g>
      <g
         id="g911"
         transform="scale(1.2642)"
         style="fill:#666666">
        <path
           d="m 16259.3,2893.05 h -66.5 v 52.52 c 0,40.58 -63.2,40.66 -63.2,0 v -52.52 h -59.5 c -40.5,0 -40.6,-63.12 0,-63.12 h 59.5 v -66.53 c 0,-40.58 63.2,-40.65 63.2,0 v 66.53 h 66.5 c 40.6,0 40.7,63.12 0,63.12"
           style="fill:#666666;fill-opacity:1;fill-rule:nonzero;stroke:none"
           id="path913" />
      </g>
      <path
         d="m 15523.4,4290 h -84 v 66.4 c 0,51.3 -79.8,51.4 -79.8,0 V 4290 h -75.2 c -51.4,0 -51.5,-79.8 0,-79.8 h 75.2 v -84.1 c 0,-51.3 79.8,-51.4 79.8,0 v 84.1 h 84 c 51.4,0 51.5,79.8 0,79.8"
         style="fill:#666666;fill-opacity:1;fill-rule:nonzero;stroke:none"
         id="path927" />
    </g>
  </g>
</svg>
