<svg width="36" height="36" viewBox="0 0 36 36" fill="none" xmlns="http://www.w3.org/2000/svg">
<path d="M3 36C2.2 36 1.5 35.7 0.9 35.1C0.3 34.5 0 33.8 0 33V6.85C0 6.35 0.0500001 5.925 0.15 5.575C0.25 5.225 0.433333 4.9 0.7 4.6L3.5 0.8C3.76667 0.5 4.075 0.291667 4.425 0.175C4.775 0.0583335 5.18333 0 5.65 0H30.35C30.8167 0 31.2167 0.0583335 31.55 0.175C31.8833 0.291667 32.1833 0.5 32.45 0.8L35.3 4.6C35.5667 4.9 35.75 5.225 35.85 5.575C35.95 5.925 36 6.35 36 6.85V33C36 33.8 35.7 34.5 35.1 35.1C34.5 35.7 33.8 36 33 36H3ZM3.85 5.3H32.1L30.3 3H5.65L3.85 5.3ZM3 8.3V33H33V8.3H3ZM18 28.5L25.8 20.7L23.8 18.7L19.5 23V12.95H16.5V23L12.2 18.7L10.2 20.7L18 28.5ZM3 33H33H3Z" fill="white"/>
</svg>
