<svg width="48" height="48" viewBox="0 0 48 48" fill="none" xmlns="http://www.w3.org/2000/svg">
<path d="M22.5 26.1V5.79999H25.5V26.1H22.5ZM24 42.1C21.5333 42.1 19.2083 41.625 17.025 40.675C14.8417 39.725 12.9333 38.4333 11.3 36.8C9.66667 35.1667 8.375 33.2583 7.425 31.075C6.475 28.8917 6 26.5667 6 24.1C6 21.4333 6.56667 18.9417 7.7 16.625C8.83333 14.3083 10.4333 12.25 12.5 10.45L14.6 12.55C12.8333 13.9833 11.4583 15.6917 10.475 17.675C9.49167 19.6583 9 21.8 9 24.1C9 28.2667 10.4583 31.8083 13.375 34.725C16.2917 37.6417 19.8333 39.1 24 39.1C28.1667 39.1 31.7083 37.6417 34.625 34.725C37.5417 31.8083 39 28.2667 39 24.1C39 21.8 38.5083 19.6417 37.525 17.625C36.5417 15.6083 35.2 13.9167 33.5 12.55L35.65 10.45C37.65 12.15 39.2083 14.1833 40.325 16.55C41.4417 18.9167 42 21.4333 42 24.1C42 26.5667 41.525 28.8917 40.575 31.075C39.625 33.2583 38.3417 35.1667 36.725 36.8C35.1083 38.4333 33.2083 39.725 31.025 40.675C28.8417 41.625 26.5 42.1 24 42.1Z" fill="white"/>
</svg>
